/* XPM */
static char *result[] = {
/* columns rows colors chars-per-pixel */
"64 64 60 1 ",
"  c #717570",
". c #3E3E45",
"X c #646663",
"o c #565A5D",
"O c #5B5F60",
"+ c #383A43",
"@ c #696D6A",
"# c #767770",
"$ c #43474F",
"% c #53575A",
"& c #4F5153",
"* c #626361",
"= c #494A4E",
"- c #6C706E",
"; c #535455",
": c #3D424C",
"> c #4D4E51",
", c #656968",
"< c #454348",
"1 c #050314",
"2 c #5B5C5B",
"3 c #1B1827",
"4 c #30323C",
"5 c #6A6A65",
"6 c #777A73",
"7 c #211E2C",
"8 c #5D6263",
"9 c #141222",
"0 c #7A7E76",
"q c #292934",
"w c #39353D",
"e c #71726C",
"r c #0B0A1C",
"t c #2A2D3A",
"y c #6F6F68",
"u c #242431",
"i c #7F8178",
"p c #635F5C",
"a c #322E37",
"s c #474C56",
"d c #4C525A",
"f c #333642",
"g c #1C0718",
"h c #4D4649",
"j c #5D5756",
"k c #83857A",
"l c #261221",
"z c #87897E",
"x c #33212E",
"c c #7D7C71",
"v c #7E847E",
"b c #3D2833",
"n c #574D4E",
"m c #4C3C42",
"M c #48333B",
"N c #8C8F81",
"B c #605151",
"V c #330518",
"C c #989B8C",
"Z c #5D1426",
/* pixels */
"14s;;4:&$u9u$bw$4:s>.3+sd.13+.:fru+$<3$8:.3++$=O4d=qgau.u971&df3",
"98o,e2O,,==%oBbaq=--29fs:ugq%@d:4<3>:3$<q=wO@ @$4,,<llg+4gu46@8.",
"r.o@e*822@2,*@h.O*.<;..4lO==8@*o$<.al7..*#=*##22O;$8%>q<bl$=#-5o",
"rtde#X@;*yX 5@p&oyXhwm$+aO5O2;>>4%,X<1qeX2<M55m55o=-@=+O,;l$#@@$",
"3::*y5cpec5c eXc=5ijmxgg;82O%q;;>XX5&gl&<;OMbbMy=#*y*O*e5*bmz O:",
"rt:;o<*yy@X#;*ce=p5yX:.xM@<4.h%=+*%%.1VVlM.ykpmeo6c#yeX6#y.b-@%t",
"rt;@=u;hj399r3a&wa&y;q.<b4u3<jj;a5.&hrglllg>2hMh4.<<q.<%yX&79..a",
"r$OeX*C>..rgrr3coj2kk2&@#0<< pjy47>*<q7q5=ac=jB#q&5#&3= 0ii>o+.2",
"193.65#hXz= hln2;e%,i@--* &>#*<>7=6<wtqmy#;#5cB*&;kzkf+#p0ky#>+3",
"13qw.+.ec6X65Bp;a k  <  -iXa* =g32;&2+&ph;;iy;h# -> 0+;i==y2e*%q",
"rfd%<425c5&6X5yy&>#5yX-iiX=7x+b1t=$pp+O5ywwip*Beevi><X@z0p.<y8O4",
"r4.&o<55 %$#yy#*o5XXX6X,O*otxVg37;o*O+@5e*7<kkp=& k>+ Xvien=#2&7",
"13=2=.5pppt=;2p>+,a<&uu$+qxVg7t31t&*=qp*55ug<cp>7;#;w$<5<Bna.a7q",
"1fe##eii#i.XN#i &0w&i=+O*=lVgn2+uq@e*2ic0NXp&Nik=p<&y+.pmki>.<q3",
"9+&56jc##ej8ckk@oe6Ni, #=n>9w.&.>Xw$,,i0cz;jjii#X%19uhhnMpp=i05a",
"r:d,0hBcjyO=2  5>y @5O ,%$7a@o>:<e=&<20 5X&*<25y2=q9wc5cywmw0,*$",
"r:O# =mjj#%X52#Ot-z--eXe %xa@ @o$5p*>.cy2<>k5>5*u> 0X#*i5pi,6X&f",
"rt.$<.;hbjw=j>h+fXi&::&X>w47d>;dt<h>;aX>&>q2&hCit+o0X$<y<.>wX*=q",
"r:O5o;#chVwi6yew4>$&;>*y. *d#e@X&6w7w9qj 62$3q&.u%X;*%+*o#p+p2>q",
"1f%5@@ee5M.#z05*93r%X<>e0e8,vi#;w.OX.$*c y->t=a@<6O C#%0-Nz-OO*:",
"17%,##yXnbj606X;79r3q4@i0eXXv0- ;4*i2O#yen<%9rqf4ve*#,Oz0k6OjeXs",
"19$s=.*jBBm X8X&391779$2@k6Oz-*0%o3&$> --8739l417CC0@i> #eO.B52u",
"1u.<t72jp54oX.>2ut1339.%;e.q52*oq+a<;wOo5&lg44xmV=ep.O+;,8w3X>47",
"1f$,=<k#eew<w>6*;X=$8>0k#io3w *+w-@6e% 5i6=.j&lq9, <2a4,;,=qi-x3",
"97+,X=6*25.7w5X5=Oy82&,e#e#q174a< X5,X  ##>p.wlVg20@e*%0o+aguaaf",
"13fd$&6e06$+08*@:o,8%:Oe  2gl:&$:,OX-o#6@,>%;7gM<>2008; ,$gZg+&+",
"174.<w,X=*t.X822t$d&&t.o;:t72:4wq+t2X+OXX&a...qb7+*X,.un+rlZu7at",
"rf$8O=-@2y%5 e62422zvd%*;3ghe&d%79a#e%X8#Xuoppjh+,ceiOf&rl3glgu7",
"1t+s=.o8,&%o&@*oO->%,O*ooblh@os$td$j,:%;--o@@22;&*66@87+awx7datu",
"1q:aw:o,@$+<%*,-8i@%=aw<4a&.Osdsfd=awtO%dOoX, X2&,@6 8ll+%O7d&3q",
"1ussa9+%oa9$@-@O= ,X%<9..;==8dssu:d4a9+dq:f%X-,%%ooO,<bd::%f:%:7",
"1t::t1g372<, ,8&= @>f9t$$$$:8,d$3q:t71g91w7X@X8o.X;+qluodddu:&:t",
"1rf3199xw=7w=8<.thp%q1u&.=f4O>$437u43111379&2;=%t3qal37=+ff7f.fr",
"r:$$wa&%e*4.bj&eoj2>uf&8%@%d-O$+9tsO4r73Oof ## 8;+m<h,>O+waaO8d7",
"9f:d%+*=e*oiBp  Xv+a2%-,,,%O,o+7qo,>>q>:,Os-#0,>8#jpp6>%,=74Xod.",
"rfdds:o2> >8hpk 20a&i8%*5O$>-&9+:-o>>4o:@-o-e@* &ijj56o%=hw=O&:=",
"1u$s:.%&+;q>wb&#2&<OO=o@e*$t.tlxt+sO%7o=4&a5o;- &ynMX;w;>hh+8=.t",
"r:dO.7.*pr:k6jpjt>,<&o>=,;2+.;&g9&ec%q8->+3=;e- 2#@M<.&i22X>=42:",
"r:so,=sOX.*z0pc2=,:&0-@&a=<+,8&gt  #88  vv=1o05kX @pn X0y#y<=+>f",
"13.d8X-<;y<*ipj8Xe4X68#0=&.w8X<3.##,,8@60z&qa*i0%@-hyiyi 0e>X2+7",
"174so>o;5i-8 05;<$ #-oO-=+s3Oou+:vk6-d6 v-&X2wO %O ne > 0z,:5,&.",
"193tq3+XO24<pX*.32XXo7$8:3llu97:f8%*OtXp;j7.#;<+9;6jh;4X@%qq j.u",
"1.u1g.06i64Xi#y*;z06*78@&tVZ138>;6X60*kpmkX*kXo7t0NN@.oN-@*M@@Of",
"17q9VM  6*$00 00O 6@*2++;>97wx,.fv0vz@ezBy*@-dd4a#e#i#%05cN;x<i+",
"193awlxmh;.$> #@<=eX2o+o, s+Oaw$d6@6 o5#yB%-e8,;u66X;<%--i-$;amq",
"17fd,<M<hj&e=@0O78kN0f-,X-O>Oh=oOv06iO#j5b< e@6 $qO..$$>-5.+X$xq",
"9+.dO=mjieu:O&0,s0 v s,v@@od,>wf%66vvO#jbl<  -@@=o478%+,6e-o-sqq",
"r34$:+>=yXt3q4<u4#y%o4O@*2+tO=&4rd,<s4X2wxx+;5>2fsq. =ue y&4;sqg",
"r.ddo*0#z0*+q===.zX*C*8 60o.@#ki$zC>3aeypXM+ezyc6.9kz*%Ni5#:eOO.",
"r:d e5-ykc&.lts+u%XOkO-vvv#,O%6z..o=h+ 6*pjNikce*77zz#OeO=#,#*o.",
"1t%@ @,@ik%;rgVVg@Cyp50vv@-@z@%,3r9a8$ 00XnzzNz239u*N0:8  iX6-+4",
"9q4$.+Ooo+ua37Zbga@@h:d08w=d Xdur3q4q78yejuO@0N2944.,%.@e5%<8>$+",
"19.ey%v62X=*jhg4>y2.3gn*. es>@O37>O,2<##cyw+3r3qq660-qf0##@4a>8a",
"9$$,@,- #k,@XhZn>6i6;Mbbh6i6>w.+4o8XO8i6, y@<l.#o,i6# *6e@v@w&$f",
"7s%>;* --eO@j@mB>66 ,<8*bX -$bO%+O 8+> Xj-O;<pij<u$2ki*X>%-.x.$t",
"1s,$@=*,@8sXp@mBO8*;Xo, >5X3xo8%f;X84f@8O*o&*j60w19*i8%#ooww 8sf",
"17:&43$%*%q$n,MB=<$=;3t=&79x*oo&4=<of+;+>2+2Xp@-w1w*&><@>wha>=.7",
"1u.833s48#$%2%Mh+ye No8$$31b @,%$dd%77wuX5>-e#e#.wC #y<i-j0qa&2w",
"ruOkoqs+>&% O-n<$ #y6,@O3lZxd=$u$%$q11r;6 ;-#y*ch*v6&0O#ep-fwO-<",
"9s%ez$%.;<4oe ;q:  ,;h+%lu3g4$%44%%u37XoO08$O05nf66-;7<@,*8:xqau",
"1t8, 823+&u.@O==4,O&&xgr4s+7gussff4o*ud%O&s8=O==>6kee=7o@O8a7xu+",
"r+dOo$oq&8.uqs8%u:o.dsgtdos+s7+.34oo$tsdOs3%.qbXo%@- d:$$s+3>%$t",
"1t+:fq$4+:34ttd:4++47l3t$:tts$3urfs++3fdf:4q+$a.tf$%s:+ftq$9td+u",
"1rrr1rr39r1191rrr9r111r1991997r11r9r11r7rrr1r31rr9939r1r3r99r9r1"
};
