/* XPM */
static char *result[] = {
/* columns rows colors chars-per-pixel */
"64 64 244 2 ",
"   c #080617",
".  c #0C0B1C",
"X  c #070617",
"o  c #1A0C1C",
"O  c #13101F",
"+  c #280D1D",
"@  c #030E24",
"#  c #0D0D22",
"$  c #130E22",
"%  c #1C0E24",
"&  c #0D1226",
"*  c #0A1428",
"=  c #131223",
"-  c #1A1425",
";  c #1A1827",
":  c #141A2B",
">  c #1C1B2A",
",  c #171629",
"<  c #270E24",
"1  c #231324",
"2  c #2A1326",
"3  c #2C1229",
"4  c #221D2C",
"5  c #2B1C2B",
"6  c #271627",
"7  c #321C2B",
"8  c #381628",
"9  c #370D24",
"0  c #1D212F",
"q  c #1C2331",
"w  c #192333",
"e  c #23212E",
"r  c #2C212D",
"t  c #35222E",
"y  c #252532",
"u  c #2A2532",
"i  c #2B2A35",
"p  c #2C2E39",
"a  c #242935",
"s  c #332B35",
"d  c #3B2D36",
"f  c #352934",
"g  c #2E303C",
"h  c #33333D",
"j  c #3A353C",
"k  c #3B393E",
"l  c #393338",
"z  c #481729",
"x  c #571629",
"c  c #490E24",
"v  c #6B1A2B",
"b  c #671829",
"n  c #78172A",
"m  c #46242D",
"M  c #462B34",
"N  c #572A33",
"B  c #43343B",
"V  c #43393D",
"C  c #4A373A",
"Z  c #573739",
"A  c #5B242E",
"S  c #672A33",
"D  c #762A34",
"F  c #65373A",
"G  c #722E32",
"H  c #69443C",
"J  c #78473C",
"K  c #7C513E",
"L  c #333641",
"P  c #363943",
"I  c #3B3C44",
"U  c #3B3E48",
"Y  c #383741",
"T  c #433D43",
"R  c #4C3D43",
"E  c #483A44",
"W  c #513E43",
"Q  c #723E40",
"!  c #3F4046",
"~  c #3E414B",
"^  c #434246",
"/  c #4A4245",
"(  c #43454B",
")  c #4B454A",
"_  c #46494D",
"`  c #4B4A4D",
"'  c #4D4847",
"]  c #534345",
"[  c #534C4D",
"{  c #574749",
"}  c #54524E",
"|  c #5D534D",
" . c #5F5147",
".. c #454A52",
"X. c #4B4D52",
"o. c #424650",
"O. c #534F51",
"+. c #4E5155",
"@. c #4D5359",
"#. c #535355",
"$. c #5A5453",
"%. c #5C5953",
"&. c #535659",
"*. c #56595B",
"=. c #5B5C5C",
"-. c #5A5759",
";. c #664744",
":. c #774943",
">. c #6A564C",
",. c #78574A",
"<. c #635B54",
"1. c #6A5C53",
"2. c #625D5B",
"3. c #645655",
"4. c #765B54",
"5. c #604F50",
"6. c #5E605E",
"7. c #63625E",
"8. c #6B645B",
"9. c #77675A",
"0. c #7E705E",
"q. c #5B5F60",
"w. c #5E6161",
"e. c #636563",
"r. c #6A6562",
"t. c #666966",
"y. c #6A6A65",
"u. c #6C6D69",
"i. c #676968",
"p. c #736E62",
"a. c #796A63",
"s. c #6E716C",
"d. c #757264",
"f. c #72736D",
"g. c #7D7668",
"h. c #737670",
"j. c #767972",
"k. c #7A7C74",
"l. c #7D7774",
"z. c #6E7270",
"x. c #6D5E62",
"c. c #881A2A",
"v. c #9B1C2B",
"b. c #8B1A30",
"n. c #AC1B29",
"m. c #B61C2A",
"M. c #8A2832",
"N. c #962832",
"B. c #89393B",
"V. c #932B33",
"C. c #AB2631",
"Z. c #B42B32",
"A. c #B73738",
"S. c #AD2930",
"D. c #C5252B",
"F. c #C93836",
"G. c #D02F30",
"H. c #DE2B2F",
"J. c #864A3B",
"K. c #8B4E3C",
"L. c #BB473E",
"P. c #D7453B",
"I. c #C7443B",
"U. c #E14539",
"Y. c #843E43",
"T. c #894A43",
"R. c #8A5747",
"E. c #955A49",
"W. c #845D56",
"Q. c #994F41",
"!. c #B55948",
"~. c #B04E44",
"^. c #876959",
"/. c #966755",
"(. c #85715E",
"). c #946A53",
"_. c #A8684A",
"`. c #B77655",
"'. c #B16E52",
"]. c #867967",
"[. c #967A66",
"{. c #897069",
"}. c #A67A63",
"|. c #B57A60",
" X c #C6584C",
".X c #CD5046",
"XX c #D76957",
"oX c #D77759",
"OX c #C87152",
"+X c #E17059",
"@X c #DB7A64",
"#X c #C07561",
"$X c #E76955",
"%X c #7E8279",
"&X c #8C816A",
"*X c #97856B",
"=X c #878578",
"-X c #968A74",
";X c #A9896C",
":X c #A78875",
">X c #B69676",
",X c #B18E71",
"<X c #BBA27B",
"1X c #BE8455",
"2X c #D38A57",
"3X c #E39A5B",
"4X c #D8876B",
"5X c #D99765",
"6X c #C69878",
"7X c #D79A74",
"8X c #C98B6C",
"9X c #E2926A",
"0X c #D8A677",
"qX c #E5A469",
"wX c #E4AA74",
"eX c #E9B579",
"rX c #E3A15A",
"tX c #A69788",
"yX c #A59992",
"uX c #B8A487",
"iX c #AEA292",
"pX c #B0A8A6",
"aX c #DBAC85",
"sX c #D5B898",
"dX c #CCB08C",
"fX c #E9AB85",
"gX c #E8B987",
"hX c #E9BB94",
"jX c #F3B990",
"kX c #C9BAA5",
"lX c #C29E82",
"zX c #E8C59A",
"xX c #F0C690",
"cX c #D9C5A8",
"vX c #D7CCB9",
"bX c #E7C9A6",
"nX c #EDD7A9",
"mX c #F5D7A8",
"MX c #ECD6B7",
"NX c #F5DCB3",
"BX c #EECBA9",
"VX c #F9E6B9",
"CX c #F8F0D0",
"ZX c #EADEC5",
/* pixels */
". h X.&.+.I ~ @...i > i ( B l U h ~ @.&.U e L ..@.h . ; P ( ~ L , y L ( U y ( &.~ P u P ( ` #.#.P +.X.i 1 r e h a = ; - ` @.U 0 ",
"; X.q.t.y.=.=.w.w.` ( +.&.[ B h h ` w.w.+.e h _ U i 1 i @.w.@.~ h h i ^ Y y U ^ P ) I #.t.u.e...I q.q.^ r 6 6 l i 1 y h y.i.*.! ",
"= I @.i.s.e.6.=.6.e.6.e.e.e.' T @.=.X.` ` I I h r X.` ` =.y.q.+.( ^ ! k r 4 I _ =.e.[ =.s.f.6.*.=.&.X.*.#.! s I B r j X.s.s.t.&.",
"# g @.s.s.y.y.=.e.u.t.s.u.u.=.#.=.y.7.) V T I h j *.e.q.*.#.#.X.U #.w.=.T $ i =.e.=.` / 2.2.[ 7.e.*.@.t.e.+.( *.=.` f ) s.u.t.X.",
"; L o.w.y.y.f.7.s.h.s.j.f.u.u.u.#.y.f.<.R d 6 6 ` q.=.*.+.P X.O.` 6.e.e.) o 6 ) ) X.$.R R C R e.=.y.y.u.t.6.6.u.u.*.M W l.z.6.~ ",
"& p ~ #.#._ =.y.y.7.6.8.#.=.u.y.X.$.y.y.%.U h t R -.) h U ) #.X.( =.*.#.P o + 9 5 M T 6.u.O.] 2.*.u.f.y.t.7.e.s.f.y.^ l q.t.+.L ",
". g #.t.+.k #.$.[ i ; ; = e j $.^ I $.s.=.P U ^ V ^ p u ) $.$.X.k +.` +.^ O o + 7 6 6 O.2.O.R [ I _ +.[ k ! ` 6.s.y.#.i u ! ! h ",
"= P #.t.e.e.k.#.) I ; 1 O . u 7.%.#.=.h.h.=.#.t.r.e.( T 6.<.2.y.` T [ #.^ u ; s -.' I e.-.$.3.2.P ` e.u.X.i ) i.j.k.h.#.X.U U _ ",
"  ; e ) y.y.u.#.7.f.#.=./ t ) %.*.t.6.s.k.i.y.t.t.i.y.8.a.u.yXkXpXyXl.x.e._ h E e.e.-.z.y.y.3.8.#.*.h.=Xs.U ( s.e.f.%Xu.u.#.P u ",
"  ; i P ^ T ` y.k.h.t.h.7.$.2.#.! y.k.s.y.#.x.r.%XyXvXvXkXcXZXCXCXCXcXvXcXiXl.1.| [ #.h.u.=.O.s.s.u.w.s.s._ #.h.=.#.7.7.u.7.+.i ",
"O g o.+.~ P #.u.g.t.*.s.u.y.u.7.+.%.s.7.<.9.[.iXZXZXVXnXgXeXeXzXaXwXwXgXeXxXxXuXtX{.{ x.r.x.3.i.s.%Xh.#.X.6.i.%Xj.=.` ` y.e.&.h ",
"& i ^ +.+.` 7.y.s.*.` t.y.y.f.7.*.=.<.4.:XkXbXBXMXbX1X}.>.H ,.*X,.H H ,.).2XrXeXzXsXtXa.r.f.2.X.+.s.k.+.! e.y.l.k.r.[ ` e.*._ u ",
"X e ` =.#.` r.r.r.=.I O.=.7.8.#.` <.^.sXnXmXzX>X[.,.m M 0 q 8.tXp.I : - 4 M K '.qXxXVXsX[.9.3.` h *.y.*.( _ X.2.$.2.$.I ! l a e ",
"  h e.s.u.y.k.k.h.u.` w.k.j.j.r.^.*X>XzXnX<X1.] 9.| 0 u * a u.iXg.` ; 2 4 ! 9. .;.;XeXeX,XtXtXi.+.$.) ` *.T ^ $.] p.f.` _ ) s 0 ",
"= L #.y.f.7.f.l.f.s.-.w.j.=Xg.^.0XnX0X_.R.V t M &X>X<.a * p } y.%.} 4 x >.*X].a : l J E.uXZXvXtX8.` = ; s ) [ O.] =.2.#.s.s.=.l ",
"= U @.u.f.#.3.p.8.y.=.&.w.p.(.6XVXNX*XZ r ; Z M  .:X0.} ! ` } %.} %.^ W ^.>X .& , 6 z M [.BXCXZX-X' i e I p.y.f.r.' ' ` h.s.w.( ",
"& P &.i.i.` ' $.$.y.*.*.<.9.lXmXbX;X8.<.W m ;.R V 9.0.&X].p.y.9.p.d.*X*X(.E.Z : r t Z >.4.[.cXVXsX(.1.i.e.u.t.j.r.%.y.w.s.t.X.P ",
"O g ( +.+.( #.[ R { T O.:.,XBXzX/.W 8.].0.Z H | ^.R.,.%.k w w w q q I 7. .,.9.` l l 9.&X&X] 4.aXmXsX{.z.e.X.` e.#.` +.) 2.7._ p ",
"O U &.w.-.&.u.p.] 7 E 1.^.dXcX}.t : %.].d.' 4.}./.M.7 q l = . # . . . * : g %.g.0.| 9.&X9.4 8 ^.bXNXuXr.7.&._ 6.=.u.6._ =.=.X.g ",
"  g &.y.u.i.f.f.2.d W |.sXtXa.N x 2 s } %.d.(.B.z b 1 > N M.B.B.B.D x = * i k ) ].*X| } l 8 b N }.nXnX>X=Xs.=.f.h.=X%Xt.=.w.=.( ",
"X y @.w.u.u.u.e.O.C :.aXNX>XZ M S b z ^ &Xd.B b < 3 N T.#X+XeXmXhXoX XB.Z i u d l 9.(.T 8 v c - C >XVXzX[.8.w.k.k.%Xj.6.-.u.e.o.",
"X ; ~ X._ _ =.<.{ { }.mXnX(.1.8.B t Z &X[.;.5 9 < A ~.XXjXjXNXCXNXjXxX@X!.D 1 : @ 0 >.(.F n 7 w ` ^.zXxX|.8.*.u.h.s.*.( $.8.#.p ",
"X e U ) h p -.2.<.^.sXNX,XF [.*X(.' 8.].l 6 ; - b A.$XXXzXmXVXVXjXBXBX@XXXA.v = @ = N (.9.;.0.d.h.W E.2X6X{.) #.y.w.I s =.&.h e ",
"  p _ =.` ` f.u.2.}.MXbXR.b ;.(.^.| &X_ , 3 % x n.G.XXXXfXVXCXVXBXBX9X@X9XU.D.b & ; S { &X8.g.(.R = M ,XMXyX] *.q.*.T h e.=.f 4 ",
"= e I w.=.#.h.r.4.6XjX8XZ x 3 e l 9.} y E b x b.m.D.A. XXXfXmXCXNX@XXXhX4XG.H.C.8 q / y [ g.) N z 3 t ,XNXkX^.i.q.( s 1 s k l g ",
"X ; L X...X.u.r.W.sXxX).1 O = * ^ g.G A E 3 x n.m.D.Z.@X.X.X9XmXmX@XXX4X XF.P.~.A = : @ q 8.} m A x z J.jXMX{.x.q.P 2 c + h ! ! ",
"  0 L ~ ( ) e.2.,.8X<XH m B I h 7.$.x v 3 * A Z.C.D.G.@XXXXX4XfXfX4XXX@XF.F..X!.D 3 * a y ` g.H F B 3 Z 2X6XW.W h - + c 5 e g i ",
"# g ~ *.&.X.w.x.:X>X^.M J 9.%.} d.T d 6 @ * x b.v.D.U.$X X X7X4X X@XgXhXXXG.Z.B.n 3 a d.8.( (.1. .7.' C K ,XiX3.4 - 1 1 6 1 e e ",
"  i U .._ _ #.3.lXBX;X] 3.} 8.8.0.Z ;.h = & z D C..X$X@XoX.X#X4X X4XhXaX@X XA.b.v 3 = } (.k 8.0.g.].uX0.).hXvX4.f h f y ! h a e ",
"  a U Y h U O.4.aXmX].k 0.].8.1./.M.A t z < z b.Z.B.:.Q ~.F.A. XXX@X!.Q Q T.Z.v.v 1 * i C z H E.[.*X-X} R.qXhX4.j +.X.g .._ u y ",
"  a o.o.p 4 j W.fXeX>.7 N M h ).~.v 7 1 x 8 x n S 7 & & z M.C.C.A.M.8 < $ 3 v N.v 9 7 M t 1 v D.S g q > J.3XsXW.^ ..+.L ~ +.! y ",
"  y U P y . o J 5X3XH ; < . e _.K.S W i z c c b 3 @ @ @ @ 8 V..XN.8 , N S 3 3 b x 8 N N , = c.D.x @ . & J.wXbX{...X.o.p U ..! a ",
"X , g y = $ 5 :.aXrXH & . @ e ^.W.f $.p.p % 3 x , @ @ @ @ 7 }.aX}.f , :.B.6 $ x x 8 5 e 0 7 m.H.n 8 5 = J wXzXW.U P Y u P ^ L , ",
"# L T U h g ) W.sXrXK e a l /  .8.h ].-XL & N E.{ : * @ = F }.*X,XQ 1 8 z ; N V.c.3 h 7.<.M K.V.N.J ,.s J.3XwXW.T Y p s #.q...a ",
", L o.@.X.( -.4.kXwXK <.&X*X*X%.9.i T O.& 3 v. X8X,.~ I S ~.:.u Q L.v d T $.'..Xv.8 w h h 0 <.9.E.).<Xd.E.3XwXW.-.( u Y *.q...U ",
"# g ..@.....O.>.dXgXR.] d.(.9.%.g.l , : L 8 b.F.XX4X8X'.A.C.z @ 8 A.Z.~.|.4XXXF.M.5 @ * @ : 8.8.1.&X;X1.E.eXaX>.` ) Y ( =.+.( ( ",
"  a ..X.~ U ..] ;XeX/.M t m t ' ].C 0 ' ` 4 x v.D.F..XA.C.c.< @ , V.D.C.A.F.H.C.x > i * @ q 0.} 0 t M m [.nXaXQ ) [ ` ( &.` U L ",
"= L @.*.^ p U ] !.qX6XF A N 8 r d.7.h 8.o.* $ x c.c.n b.C.v.c , 8 n.m.c.b c.n.n - q 9.h * ! d.i o 2 o G 6XzX#X;.$.=.=.+._ U X.~ ",
"$ L ..q.=...X.] G OX8XB.v z 1 ; 6.-Xl ' O.3 $ % 3 3 3 v Z.D.v.c.v.D.D.c.< 9 n x * q (.8.a 9.9.2 z 1 . Z 8X9X~.5.t.f.y.` ` ! ) P ",
"X q P @.w.t.w.` F `.qX_.n 8 l ^ ' =X%.q L z c , & * < D A.G.G.P.G.D.D.v.3 < b c . * l ] } &X{ S x 1 : 8.aX2XJ.1.f.k.y.#.=.*.U i ",
"X ; h o.@.X.&.X.F `.gX6XF s %X&Xd.%X&Xa * c x 6 7 1 8 n Z.F..XU.I.I.G.C.z 3 v x 5 8 1 i 9.g.d./.K N V *XeXOXH 2.j.%X6...e.e._ h ",
"X ; > u i u ( 7. .J 7XzX8.` uX-X8.k 8.9.u x n 7 ; & 3 b N.Z.C.C.S.~.Z.m.z - v N T 8 n :.7.l ^ ].;X4.0.gXrXQ.C e.s.*.P j y.=.) p ",
"  i y . o k u.j.e.Z '.jXtX .4.H q * V (.R.A.D.n ; : = 2 z c.v.v M.N.v.v.2 = v z : 6 A.E.V 2 ; ] ^.H {.0X`.Z X.k.s.i.%./ 2.e.*.P ",
"  4 y - 9 B e.s.y.] K.qXsXW.d ; @ ; 8 Z E.U.H.n.r ! : & = z b 7 z b n x , - v 8 * V Q.C 6 x z N C f.iX`.J.5.*.h.s.k.%X#.B ` e.~ ",
"  = 4 p l r M / [ / Z _.8X|.4.t o % z V  ./.P.m.7 : ; h : & - * @ , x c r M v x ) ^.4.[ > 8 c.v | kXzX_.Z _ &.y.s.j.y.X._ I E s ",
". > L X.=.^ B / [ #.R G _.5X0X,.8 m F 1.u.{ S.Z.] y > V > = 6 * @ $ x x e M N.B.>.K./.9.^ 7 c.V.>XxX3XJ T ( ..&.u.y.X._ =._ f u ",
"= p I @.*.` R #.f.e.h M K.qXnXtXZ H R.8.p.B n V.^.>./ l 0 : > * - x c.S.Z :.I.C.z D /.3.5. .N J.6XqXK.d +.+.! w.z.s.6.&.w...i e ",
"O e L o.( ( X.-.f.e.j e M ).uX,X&X>.).^.^ ; n b d  .0.&X%.` ` _ [ F m.H.R.,.S.v.9 b Q 1.4.>.].}.E.R.M ! y.+.P y.h.s.*.~ &.+.g 1 ",
". L X.@.&.6.s.f.%Xh.*.k u C F ;XbXtX| Z 3 < n x j 7. .>.9.9.d.d.9.J.n.n.K (.T.b c x 6 l } &X0X7XR.M s s.=Xw.=.%Xh.i.t.X.7.6.@.k ",
"$ P @.i.s.s.s.f.=Xk.*.! 4 r B ).eXbXtX>.m z c.z 8.:X9.l t a #.&X3.S n c.E.,X).r + - 0 ! -XsX5X`.;.r u j.=Xf.w.s.e.*.f.i.s.i.&.! ",
". p @.t.u.e.t.i.h.s.&.! 1 o 9 m E.0XjXdX[.B.m.N (.*XC s ; i %XuX].:.n n N ,.).V e _ =XdXgX0X_.H r ; u 6.%Xh.+.w.s.s.s.i.s.t.( h ",
"& y P X.....w.w.6.( h l e 6 z 8 t J 2XwXzXXXG.D 4. .0 ; * q &XdX[.F n c.v C >.5.f.kXnXxX5XQ.;.^ e h I X.t.@.~ t.s.u.6._ &.&.( P ",
"  > I t.e.*.h.z.w.6.X.-.} V 3 l T W H '.7X!.G.~.(.d.' p w p } &XO.x n c.B.9.g.*XdXxXqX1XJ 8 t l l e.h.f.t.! ( s.j.z.t.^ k +.@.k ",
"; I ..t.t.y.z.z.f.l.t.t.7.[ m ] #.y.1.;.:.B.G.U.qXwX<X>XyX=X=.r.$.Y.n.D.8XgXhXeX2X_.J.H B r ^ 6.&.w.j.j.h.i.7.s.u.u.j.=.k _ _ h ",
"0 o.&.+.*.e.u.s.s.s.e.e.2.w.] 5.#.f.h.2.R N N.F.2XrXrXqXeXhXdXdXkX4XH.H.fXgX3X`.J.Z R ) ` $.s.r.( g ^ w.%Xj.i.t.*.q.w._ Y ( ~ L ",
"O ~ =.X.&.X.=.t.t.q.@.=.2.e.{ { =.q.q.-.&.) C F J K._.oX2X2X2X5X9XoXH.G.!.R.K ;./ O.+.+.=.2.f.s.k . e %.f.6.*.i.*.X.T T =.=.~ L ",
"  a ~ X.h u ~ #.w.*.P _ $.=.W { X.X.+.#.*.h k ( ^ t z F H ;.J H H B.M.S m M E I +.&._ *.t.7.u.y.k = I w.=.+.X.y.&.( ) j ..+.^ y ",
"  0 ( *.i 0 ~ ~ *.t...#.=.&.R / ( w.y.s.j.*.&...I ; o d -.*.#.( ^ ] [ ^ 4 > i L 6.e.+.y.d.s.f.s.^ ^ k.h.u.t.#.s.i.-.r.h l +.#.I ",
"O a *.f.&.h ( ~ +.#.@.t.t.e.#.T _ s.h.s.f.t.e.&.u 1 9 t ..#._ L ~ @...i . . 4 ..s.s.=.t.f.s.y.y.` 7.%Xh.=.t.6.s.f.e.e.I h &.=.) ",
", I =.h.h.@.` ! ` ( P *.u.u.#.h ( s.s.e.*./ ! ^ 5 r 6 1 i ( X.L P X.X.p 4 u X.*.w.s.w.@.w.s.t.} ) s.k.s.#.l ( t.y.e.q.U f s h i ",
". h =.i.s.w.@.i ! ` g ! =.q.+.( P =.w.@.X.d 1 > h ( L e 1 i o.o.L L U @.X.h X.*.w.@...&.+.&.+.` +.s.k.f.i.( g &.t.w.&.h u f i h ",
". g ..w.&...+.g ( &.P i L ..=.X.h ~ @.( _ k % u ..@.~ U U p L P e L X.*._ g ~ @.*.( g _ ~ l B #.&.*.t.s.i.+.~ ( o...I e U X.U p ",
"  y L ~ h g P h P P e y y g ~ U p h h i e 4 ; a I U g p ~ P e > $ p ~ P L 4 L ~ P L i i h L s k g h ~ @...U h g p p h > p ( h y ",
"X . O *   . = ; ; & X . = . & = = = O .       . , , . = ; e # X X # , $ X   = q = O &   = > . O & , > > ; & . O - & - = & ; =   "
};
