/* XPM */
static char *result[] = {
/* columns rows colors chars-per-pixel */
"64 64 230 2 ",
"   c #080617",
".  c #0D0B1C",
"X  c #070617",
"o  c #160E1D",
"O  c #19101F",
"+  c #2C0E1E",
"@  c #360E1F",
"#  c #23111F",
"$  c #2B101F",
"%  c #0F0F20",
"&  c #131222",
"*  c #1C1423",
"=  c #1B1927",
"-  c #1C1B29",
";  c #100F20",
":  c #380F20",
">  c #241423",
",  c #2D1322",
"<  c #2B1A26",
"1  c #221E2B",
"2  c #2B1D2A",
"3  c #331221",
"4  c #381927",
"5  c #23212E",
"6  c #2B232D",
"7  c #252532",
"8  c #2B2631",
"9  c #2C2B35",
"0  c #2D2E39",
"q  c #262836",
"w  c #322C35",
"e  c #312F38",
"r  c #392933",
"t  c #2E313B",
"y  c #33343D",
"u  c #3A343C",
"i  c #39383F",
"p  c #383339",
"a  c #34222D",
"s  c #430E21",
"d  c #4B0E22",
"f  c #540E23",
"g  c #5C0D24",
"h  c #431223",
"j  c #481828",
"k  c #5C1126",
"l  c #561528",
"z  c #670D25",
"x  c #770D27",
"c  c #681429",
"v  c #77132A",
"b  c #6E1E30",
"n  c #49222D",
"m  c #482733",
"M  c #562634",
"N  c #46343D",
"B  c #573038",
"V  c #672736",
"C  c #792837",
"Z  c #66333D",
"A  c #75333D",
"S  c #333641",
"D  c #353A42",
"F  c #3B3C43",
"G  c #3A3C46",
"H  c #433D43",
"J  c #4B3C42",
"K  c #573943",
"L  c #683D45",
"P  c #763842",
"I  c #3D4147",
"U  c #3C434A",
"Y  c #3D484F",
"T  c #374149",
"R  c #3E4B51",
"E  c #434146",
"W  c #4B4246",
"Q  c #43454B",
"!  c #4A464A",
"~  c #44494E",
"^  c #4B4A4D",
"/  c #534B4D",
"(  c #57464A",
")  c #444C52",
"_  c #4B4E52",
"`  c #424750",
"'  c #534E51",
"]  c #455155",
"[  c #4C5255",
"{  c #4B5459",
"}  c #4D5A5D",
"|  c #465459",
" . c #535355",
".. c #5A5454",
"X. c #535659",
"o. c #555A5B",
"O. c #5B5C5C",
"+. c #5C5857",
"@. c #67474C",
"#. c #76454A",
"$. c #664C51",
"%. c #635C5B",
"&. c #6A5655",
"*. c #795857",
"=. c #744E51",
"-. c #5D615E",
";. c #62625E",
":. c #6F625C",
">. c #79635D",
",. c #4E5E61",
"<. c #525F61",
"1. c #546364",
"2. c #5C6463",
"3. c #5B6C6B",
"4. c #586968",
"5. c #586C6C",
"6. c #636563",
"7. c #656966",
"8. c #6A6A66",
"9. c #646D6A",
"0. c #6B6E69",
"q. c #6A6662",
"w. c #766A66",
"e. c #64716E",
"r. c #6D726C",
"t. c #72736D",
"y. c #7A756D",
"u. c #657572",
"i. c #6B7671",
"p. c #6C7A75",
"a. c #687A77",
"s. c #757B74",
"d. c #7B7C74",
"f. c #747E79",
"g. c #737772",
"h. c #776E71",
"j. c #860C29",
"k. c #9A0C2B",
"l. c #85142C",
"z. c #96132D",
"x. c #8A1C31",
"c. c #9B1A32",
"v. c #A7122E",
"b. c #A71932",
"n. c #B61732",
"m. c #AF0F2E",
"M. c #972838",
"N. c #8A2738",
"B. c #AF2738",
"V. c #C71A33",
"C. c #C8283A",
"Z. c #D82539",
"A. c #E22B3C",
"S. c #883845",
"D. c #973844",
"F. c #B33843",
"G. c #C83642",
"H. c #D83642",
"J. c #E63A44",
"K. c #85464A",
"L. c #96484D",
"P. c #8B4D51",
"I. c #865857",
"U. c #985856",
"Y. c #AC4C52",
"T. c #89625E",
"R. c #B85D61",
"E. c #866964",
"W. c #966A64",
"Q. c #88756C",
"!. c #93746C",
"~. c #867C73",
"^. c #937C73",
"/. c #A86F69",
"(. c #98635C",
"). c #D04B4F",
"_. c #E6474B",
"`. c #EB5655",
"'. c #F55854",
"]. c #F24A4C",
"[. c #EF655E",
"{. c #F4766A",
"}. c #F0746C",
"|. c #CE6863",
" X c #74837C",
".X c #7B847B",
"XX c #7C8379",
"oX c #6D837D",
"OX c #84857B",
"+X c #8A857B",
"@X c #988678",
"#X c #A88D7D",
"$X c #F78575",
"%X c #F38C7D",
"&X c #7C8B83",
"*X c #778982",
"=X c #7F9289",
"-X c #848D83",
";X c #8B8B82",
":X c #899589",
">X c #94998B",
",X c #909E91",
"<X c #AA9B89",
"1X c #99A595",
"2X c #A3AB99",
"3X c #A7B19F",
"4X c #ABB5A2",
"5X c #B4BCA6",
"6X c #BFBFBB",
"7X c #F79985",
"8X c #F4948A",
"9X c #F9B39C",
"0X c #F9A791",
"qX c #F9BCA6",
"wX c #B9C2AB",
"eX c #BEC6B0",
"rX c #C4CAB2",
"tX c #D2D9BD",
"yX c #CDD4B9",
"uX c #FAC3AC",
"iX c #F9CAB5",
"pX c #F9D3BE",
"aX c #D4D9C4",
"sX c #FAD9C4",
"dX c #E9DBCC",
"fX c #FAE1CC",
"gX c #F8E7D5",
"hX c #E8E5CE",
"jX c #FAF7E8",
"kX c #DCE1C4",
/* pixels */
". y _ X. .G Q  .` 9 - 0 Q N u G t U [ [ I 5 y ) ^ 9 o = 6 w [ OXwXwXOX~ 6 5 y ~ I i 7 F U ^  .[ G _ _ 9 # 2 7 S 7 = = & _ X.D 5 ",
"= _ <.6.8.O.o.2.<._ Q [ X.( N p i ~ -.6.[ 5 t y 8 > 6 t w  .2XyXkXkX5X1X8. .I w 8 u u  .7.r.6._ I O.<.Q 2 < > S 9 # 5 S 8.7.<.G ",
"& G o.0.0.6.2.O.%.6.%.6.6.6.! G  .-.^ ^ ^ p 6 5 6 H 7.:XXXr.eXhXkXkXwXeX5X5X>X7.E w w E q.t.-.+.O.X._ O. .Q 0 H u 2 F _ h.r.q.X.",
"& 0 [ 0.t.0.7.+.6.0.7.r.0.8.%.X.-.8.-.W w 6 w _ XX1XwXtXyX+XXX2X,X+XOX4X5XyXyX5XXXE y t p ^ W ;.6.o. .7.6._ Q +.<.( r ! r.r.6._ ",
"- S ` <.8.8.0.q.0.y.r.y.t.r.0.0. .7.;.p 5 y e.2XrXyXtXkXrXd.I F i p i o.XX5XtXrX+XXXOX7.w 6 p ;.O.0.8.0.q.-.-.0.0.%.r J d.g.<.H ",
"& q Q X.X.! %.8.8.;.-.6. .+.0.8.^ E p p ~ 4.1XeXtXkXrX1X:.E T R Y ~ R I i 2.>X1X2XwXrX1X4.^ w !  .0.t.0.6.6.6.r.h.8.H N <.q.{ S ",
"% S [ 6.' D  .../ 0 - = * 5 i ' p 6 i i.1XXX:XeXkXwXXX~ ] -.u.-.Y ~ 1.3.<.I E -.5XkXrX,X>X1X3.i e Q ' ^ F G ^ -.r.7. .q 9 G H S ",
"% S X.7.6.6.d. .! F = * o . 8  .i 7 -.4XeX:X:X4X2X-.F -.&X X-.] ~ Y ~ | oXoX~ I 9.1X3X:X,X5X1X1.S F %.0./ 9 Q 0.g.d.g. ._ H G ^ ",
"X = 7 ! 8.8.8...;.t.[ -.W a J H { 4.;.1X1X4X2Xi._ Y } s.r.{ ) T i i Y | | -.oXoX] ] XX2X1X:X1X:Xp._  .XXt.F Q 8.8.t.XX0.0. .F 8 ",
"X = 9 i Q I ^ 8.y.g.7.g.;./ E ~  X2Xi.;.1XeX-XY ] oX X~ Y { T y a r i I ] Y -.:X XR ~ >XwX&Xr.1X1X4.I o.8.~ X.y...X.6.;.8.;._ 0 ",
"% t ~ [ Q i o.8.y.q.o.r.;./ ~ p.2X4X.XOX1XXX~ ] .X=X[ i 4.1.y m V V n y } -.I -.&XoX^ ] .X:X X:X1XoX-.] ~ O.r.XXg.O.^ ^ 9.6.X.y ",
". 9 E [ [ ~ -.0.r.o._ q.-.I 4.,X4X:X=X3XXXi ] &X.X_ y 1..Xp.[ N n n p ~ e. X-.I { XX XY I oX1X.Xt.:X,X9.F O.7.d.d.q./ ^ 6.+.Q 9 ",
"  5 ^ -.' ^ ;.:.;.-.i ~ i ]  X4X:Xa.,X:X~ D e.:X[ D ,.-.7.XX&X} 6 a  .oXr.;.7.3.I  .XX-.i ] 1X1Xe..X3X=X] i ^ ;. .&...H E u 8 7 ",
". t ;.r.t.0.XXy.y.t.^ E i -.,X.X4.oX&X] Y e.oX~ F 3.4.D U e.g.f.r.r.oXi.0.E I e.3.F U e.a.Y -.1X&X5.:X:X,.D i  .( 0.t._ Q Q y 1 ",
"& D  .8.t.;.w.XXt.8.^ i ]  X X| 4.d.$.u -.=X-.t } u.Y Y Y { 7.f.OXOX X;. .~ Y ~ i.[ y 4.=X} y :.XX-.3..Xe.] u / W %.%.' 0.t.+.y ",
"& G X.9.t./ +.t.:.;.H i oX4XOX| -.P.A ( e.oXD Y e.] y Y } 9. XXXoXXXXXi.e.-.R i  .4.Y Y oXa.W Z =.$.^ :X,X} u %.;.! W ^ g.r.-.Q ",
"& D o.0.0.! W ..+.-.p F  X4Xr.} L N.S.K.;.[ i } [ I ] e.=X.X:.K m M K O.d.&X9.{ [ { ,.G 4.oX^ A A A N ;.1Xe.D ^ -.+.;.;.t.7.[ i ",
"% t Q _ _ Q ../ N N 6 F i.:X4.-.A N.Y./...p R ] T ~ 4..Xy.@.n h 3 3 s j L w.u.7.o.Y ,.] Q 2...U.B.N.B W i.e.T w E ^  .! -.;.~ t ",
"% D X.2.o...0.0.W 6 9 -..X.Xe.oXZ b._.[.L.J ] Y } u.9.&.Z j @ # # O $ $ j M ( f.oX} R ] i @.I.).A.M.B I p..X} w ! 8.;.^ +.-.^ t ",
". t o.7.0.0.t.t.+.w D 5.,X:XoXe.u c B.C.M.W Y ]  X X..M 3 # $ $ + + # # # 3 j .. Xa.) T D W K.).b.V 2.4..X,X1.y ^ XXXX;.-.-.O.~ ",
"X 7 [ 6.0.0.0.6./ p F 3..Xi.a.e.p 4 z l.Z W Y e.XX=.M $ # # @ : : 3 3 + > # s l $.p.4.D U ,.&.x.c N u.a.:X:X,.y  .d.d.<.+.0.;.) ",
"X = Q _ ^ Q O.%./ N i 3.i. .e.r.U N M C B i ] e.$.M $ # # 3 : d s : s : : : 3 3 M $.5.) y ] O.C c p 7.oX,X=X} F %.0.+.Q ..;. .0 ",
"X 5 G Q y 0 ..%.;.H D u.XX-.i.9.] E L K.Z i 5.-.M $ $ d f : s g f f z d s : 3 + 4 V 6.5.y i 8.=.A J -.e.9.9.-.U X.2.G w %.+.y 2 ",
". 9 ` O._ ! t.t.8.E F e. X-.e.2.[ ~ @.*.m ^ i.K n $ : f k d f j.x z x z s 3 3 3 # j =.i.T i r.&.Z W -.4.[ p.3.Y _ +.I e 6.<.w - ",
"% 5 G 2.<...h.0.6./ T u.:X.Xr.2.Q E +.( p 1.:.Z 4 3 3 h z z z v.n.n.n.z.z d : + # 4 Z q.[ p -.&.P H [ 7.s.,X3.T ^ Q w , 9 D e S ",
"X = S ] `  .0.t.0. .D ,.:X:Xu.0.^ -.XX-.D 0.>.n $ h d f j.k.m.C._.A.H.V.k.j.z h $ < m T.9.i ;.~.I...{ 4.>X:X4.G _ D , s , y H F ",
"X - S Q H ` 6.6.X.^ S ,.-X-X4.5.,.u.oX~ I XXI.< # @ f j.v.V.J.{.%X[.'.H.Z.m.x z f @ 4 T.8.i -.g.>.0.4.1.>X:X4.D w = # h 2 5 e 0 ",
"% S H X.X._ 6.7.O._ T 5. Xg.| ,.4.4.5.Y E XX*.< O $ f z.n.Z.[.0XiXqX7X`.A.Z.m.z f s j *.w.I ] -.%.OX5.,.:X:X4.S = > > # > > 5 5 ",
"% q G ) ` ` <.6.2.! U 5.p.^ Y ,.3.} 1.I ] +X>.< + f x k.B._.$XiXjXgXpX{.H.C.n.x f : j I.T.p y _ X.e.1.] 0.f.,.0 6 S a 1 G u q 5 ",
"X 7 G S S H X.6.2.F ~ i.-.[ Y -.-.~  .i H :.@.4 d z v.Z.J.[.9XgXaXaXgX9X}.B.j.z z d j =.K.p F -.O.[ -.[ g.:X9.S e _ _ S ] ` 7 q ",
"X q U Y e - S _ _ e 0 o.d.OX1.f.XX-.oX[ ~ +X=.j d k n.Z.].$XsXhXh.9.dXsX7XH.k.x k d j A S.N [  X X8.p.4.-X,X3.S S ` { S H [ G 7 ",
"X 7 G G 7 % o 2 w F y 1.,X+X1.a. X-.7.I ~ #XE.4 f k v.Z.].0XfXrXK H rXgX0XJ.n.v k @ j L.P.! Y 4.1. .4.[ 6.-X<.S G _ Y S G _ G q ",
"X = S q ; & = w i H y 4.:XOX,.5.oX1.} T I @XE.2 : z z.J.[.qXdX;X7 2 ;XdXqX'.V.x l.d 4 E.W.Y T ,.] [ } ] ;.7.] y y D D 7 i Y y = ",
"% S H G p p Q  .;.~ y | XXXX| ,.4.} | y I Q.:.2 3 f c.J.{.qXdXW.: : I.dXiX8XG.x z.x 4 >.Q.E y } | } [ ] oX9.I i i y w p  .-.Y 7 ",
"& S ` _ _ U +.X.;.' y R XXOX^  .-.2.} I E d.:.2 d z k.F.$XsXgXR.x.x.R.sXqX}.H.k.c z j T.W.J ^  Xe.e.9.-.+XXX .Y ^ E 8 i -.o.] I ",
"% S ] { ) Q X.X. .^ D U XX+X4.e.p.e.-.F ^ @X~.4 g j.v.Z.}.sXgX$XG.).%XfXqX[.J.n.c @ n Q.@XH -..XoXoX5.-.+XoX~ D I E i E O.[ Q Q ",
"% q Y ) U I [  .Y i y } ,X:X-.u.p.1.] y ^ #XQ.j k v b.`.$X9XsX8X%X8X0XsX8X[.J.V.c + 6 Q.~.~ } i.} ,.5.,.OXoX] y F ! ! Q X.^ I y ",
"% S { X.E w I O.' 5 y -.OXt.| 5.a.[ ] D ~ @X:.2 j c c.`.$X7XiXuXqXqXiXiX%XH.C.c.z $ $ w.@XW I o.| 1.-.] +XXX| D ! O.%._ ~ F _ U ",
"% S ` <.-.^ _ -.-.y D 4.oX7.] 4.e.O.-.i G w.( , j k b.H.'.$XiXpXfXgXfXiX8X].C.k.k @ < &.Q.B p  .,.} R I t. X] i  .t.8._ ! Q ~ D ",
"% 1 H { 4.-.-.[  .^ D 5.:X:X-.u. X X.X~ Q ^.h.4 : d k.Z.'.7XpXfXjXjXfXsXqX8X_.c.g s n >.+XH  .XXXX,.-.R 7.0.} i +.y.0. .O.X.H 9 ",
"X = S H { _  .X.;...D -.:X+X-.,.1.4.e.U N W.E.a + l x C.{.9XfXfXjXjXgXsX9X$X).x.l g n Q.@X^ ^ 3.3.1.4.1..Xp.| i +.s.-.^ 6.6.~ y ",
"% & - q q 0 H ;.;.! 0 ] .XOX^ / /  .4.T i >.&.4 @ k v B.{.qXfXfXjXjXgXsX0X`.M.v v c 4 >.@X~ Y ,.,.O.) { :X.X] y [ -.i y 7.;.Q 0 ",
"X 0 5 % # S r.f.y.[ 9 Y  XXXJ A P @.X.G I w.&.< @ z z.).{.%XpXfXjXjXsXsX0X).x.v v s a Q.+Xi y o.&.=.K J d.XX_ y ' 7.-.W %.6.+.D ",
"X 1 5 * + N 6.h.r.~ t } =X+XB b C L ^ i U y.:.$ $ z l.B._.$XuXsXjXjXsXqX7X|.B.l.l + n >.y.F F  .=.P b M d.r.Y y ' y.XX' N _ 6.I ",
"X & 5 e r a r ( / H t |  X+XV v M.P / W [ OX>.4 , l x z.A.{.9XpXjXgXiX9X%X'.G.v k s 4 w.XXU W ..#.M.l.b %.7.) y  .h.7._ Q F J e ",
". - S _ <.J H J / E w T -.;.l z.C.Y.#.N ] XX:.j d d k c.A.'.%XuXgXfXiXqX7X'.C.z d s n y..XR J =.U.C.k.M t.r.) t ' 8._ ^ O.Q w 8 ",
"& 0 G [ o.! J ..0.^ q F 0.0.r x n.Y.A t Y ~.:.$ : d c c.C.'.$X9XfXgXsX9X$X_.v.z h s l E.+XY p K.Y.v.x r OXs.G y X.0.<.X.2._ 8 7 ",
"% 5 S ` ` Q _ X.0.^ 9 { OX~.p k k.x.W t ~ Q.*.6 $ l k x.C.`.$X0XsXgXiX7X'.C.v z k s n T.Q.I y B b.k.f p XXXX~ y ..8.o.H X.] e > ",
"% S ` X.<.%.r.t.d.X.y ,.-XOXW M v V  .F G w.=.4 s f f j.V.J.{.7X9X9X0X$X).v.j.z f s 4 :.w.i D / x.j.V H OX&X{ y +.8.6._ 6.2. .G ",
"% F <.9.0.0.r.h.d.+.y } i.g.[ #.S.@.2.~ E Q.>.4 @ d g j.m.A.'.{.{.$X{.'.C.v.z.z s $ 4 >.~.I R 8.#.c.P o.-X&X} y _ +.t.0.t.6.X.G ",
"% q _ 6.0.6.7.9.g...y ] p.XX{ @.#./ ] I U y.&.4 + @ f x k.V.A.'.'.'.[.].V.n.k.g $ # 4 E.w.T R 5.=.S.L X.-X*X) t  .0.t.6.h.6.Q y ",
"; 5 G _ ' ` <.2.+.D 9 Y .XOX{ ( #.! | T I q.$.3 # 3 @ f k.m.A.J.'.].J.Z.m.k.j.g $ # < >.>.y U ,.@.P K ` g.e.U 9  .0.O.^ X. .Q D ",
"  1 H 6.6.<.g.h.-.~ 8 T r.0.i E ( E _ y u &.#.2 $ : k x k.n.C.J.]._.C.Z.n.k.j.z 4 3 4 =.*.e i ] K P ( Q 6.<.F e ..h.6.H D _  .u ",
"= S ` 2.7.q.r.r.t.+.y ] r.;.!  .-.-.-.I i *.#.3 @ z j.m.B.B.).).|.R.R.R.R.M.b.l.c d j #.&.p T -.@.L X.] t.h.[ p ' 0.f.<.i ^ ) S ",
"5 ) <.' <.2.h.h.0.' w T 9.0.Q [  .[ 1.E 8 B A n j c x.b.B.D.L.(.!./.!.^.W.#.N.M.C V n L J 8 D } &.$.| R 8.-.H 8 G o.2.! u Q U S ",
"; G <.' +.' <.6.;.^ 8 D 7.-.F Y T y T 9 a V K.=.L.L.D.F.U.U././.!.W.@X@X@X@XU.L.P.M.K.I.Z 8 0 G ! ! G G ;._ e 6 H _ H H O.o.` S ",
"X 7 Q _ S 7 Q X.-.^ w Y t.Q.N D y 9 7 < 4 V L L P P M.N.#.#.=.I.=.*.%.%.8.q.=.P #.A A L V 4 6 8 S D D G y.6.D 9 H Q W u _ _ E 9 ",
"X 1 Q X.8 5 U I o.-.D Y  X>X! T D t I @.P U.*.P.I.A b.Y.(.I.Q.Q.I.~.^.~.w.E.!.E.E.W.L.K.D.P K p y Y D W 1Xd.F e ' +.6.S p [ X.D ",
"% 9 o.g.X.S Q I [ [ i y ,.OXH 7 6 0  .=.I.E.*.I.E.S.M.U.w.w.y.Q.~.+X+X;Xw.I.W.W.w.w.=.I.P.A P N q q 8 E -Xo.a w X.6.7.G u X.O.E ",
"& G o.t.s._ _ F J N 8 t _ t.i 6 a y Q J W ( W L P x.x.C Z L / $.O.6.6.6...K P #.$.' @.P L M c m 6 6 a H 9.W 4 2 ( +.O.G 8 e y w ",
"% t <.7.r.2.[ 8 n m N i _ -.Y / *. Xf.g.!.@X@XU.F.).).Y././.#X<X>X#X<X3X2X^./.#X#X@X<X#X/.Y.D.S.( ( &.%.o.J V b M M J 0 8 r 9 0 ",
"% S _ <.{ ] ^ e N E ] R -.4.H ;.h.f.p.9.f.~.T.D.D.W.Y.L.E.OX+X+X6.y.>X,X;Xd.I./.+XE.^.+XOXQ.Y.M.P +.O.7.X.O.%.@.L c g 4 H _ G S ",
"X 7 S G t t i t p t 7 0 F t 6 p G S S e S S j j r m l j w y t t 5 w D i y w j m u m r p y i n c n y 9 y 9 e S 0 a j j 2 q Y S 5 ",
"X % & & . . & = = o   . O . % O ; O o . . o o O > , + > O O O o o O O * o o > > O O O O O = > : * = * * * O o * * > * & & = &   "
};
