/* XPM */
static char *result[] = {
/* columns rows colors chars-per-pixel */
"64 64 169 2 ",
"   c #050616",
".  c #0A0617",
"X  c #080817",
"o  c #070718",
"O  c #080718",
"+  c #070818",
"@  c #0C0B1C",
"#  c #100517",
"$  c #1D071A",
"%  c #110E1E",
"&  c #1C0C1D",
"*  c #11101F",
"=  c #290518",
"-  c #23091B",
";  c #2C0C1D",
":  c #320F1F",
">  c #3C0B1F",
",  c #20101F",
"<  c #0F0F20",
"1  c #110F20",
"2  c #141323",
"3  c #191625",
"4  c #171826",
"5  c #1A1827",
"6  c #191728",
"7  c #1D1B2A",
"8  c #290E20",
"9  c #3E0D21",
"0  c #231423",
"q  c #2A1423",
"w  c #261826",
"e  c #2A1927",
"r  c #211E2C",
"t  c #2B1D2A",
"y  c #3D1324",
"u  c #321C2A",
"i  c #3B1E2A",
"p  c #1F202E",
"a  c #22212E",
"s  c #2D202D",
"d  c #32222E",
"f  c #252432",
"g  c #292634",
"h  c #262834",
"j  c #2B2A36",
"k  c #2D2C39",
"l  c #322632",
"z  c #3B2531",
"x  c #322B35",
"c  c #3B2C36",
"v  c #312F3B",
"b  c #3C2E39",
"n  c #2E303C",
"m  c #33333D",
"M  c #3A353D",
"N  c #3B393F",
"B  c #450E21",
"V  c #481324",
"C  c #491528",
"Z  c #481929",
"A  c #561025",
"S  c #62192D",
"D  c #492D37",
"F  c #482634",
"G  c #43343C",
"H  c #48373E",
"J  c #44383F",
"K  c #682B3E",
"L  c #7E2436",
"P  c #353541",
"I  c #393743",
"U  c #363943",
"Y  c #3B3B44",
"T  c #3D3E49",
"R  c #423742",
"E  c #433D44",
"W  c #4D3E43",
"Q  c #403F4A",
"!  c #4B3F4A",
"~  c #712D40",
"^  c #7D3444",
"/  c #7F3947",
"(  c #3E4047",
")  c #3E414A",
"_  c #434147",
"`  c #4B4146",
"'  c #43444B",
"]  c #4A464A",
"[  c #46494E",
"{  c #4A4A4E",
"}  c #524447",
"|  c #524649",
" . c #58454B",
".. c #534B4D",
"X. c #5A4C4D",
"o. c #454551",
"O. c #454A52",
"+. c #4B4D52",
"@. c #4C4D59",
"#. c #524F51",
"$. c #5A4F52",
"%. c #4E5155",
"&. c #4D5259",
"*. c #535355",
"=. c #5A5454",
"-. c #5D5957",
";. c #535659",
":. c #5C5659",
">. c #56595B",
",. c #5B5C5C",
"<. c #644651",
"1. c #615554",
"2. c #625857",
"3. c #615D5B",
"4. c #5E605F",
"5. c #62615F",
"6. c #555661",
"7. c #565863",
"8. c #5B5E61",
"9. c #5C5E68",
"0. c #635E62",
"q. c #5E6161",
"w. c #5E606B",
"e. c #636563",
"r. c #696662",
"t. c #666966",
"y. c #6A6B66",
"u. c #61646B",
"i. c #666A68",
"p. c #6B6D6A",
"a. c #726E67",
"s. c #706E68",
"d. c #6E716C",
"f. c #72736D",
"g. c #78776E",
"h. c #78786F",
"j. c #656771",
"k. c #696D76",
"l. c #6E7270",
"z. c #6D7079",
"x. c #737670",
"c. c #767972",
"v. c #7A7C74",
"b. c #72767E",
"n. c #7A7E78",
"m. c #852C3D",
"M. c #8B3344",
"N. c #9E3E4E",
"B. c #A23E4E",
"V. c #AC4152",
"C. c #C67B7D",
"Z. c #7E8077",
"A. c #7F8279",
"S. c #808277",
"D. c #83857A",
"F. c #85887E",
"G. c #898C7F",
"H. c #757982",
"J. c #7A7E86",
"K. c #8C8F83",
"L. c #84898E",
"P. c #82868B",
"I. c #898D92",
"U. c #D8898F",
"Y. c #C79995",
"T. c #C8939B",
"R. c #D69CA1",
"E. c #E2A0A4",
"W. c #E0A4A8",
/* pixels */
"@ m +.>.*.( ) *.[ h p j ) G M ( m ) %.*.) p U O.&.m @ 7 U ) ) m 4 h m [ ( a ) >.) N a U ' [ %.&.Y %.O.j & s h M f * 5 2 { &.( p ",
"5 +.7.e.t.4.>.4.4.%.[ %.>...G x m [ q.q.%.f m ) ( j 5 j *.4.;.) U m j ( N a ( ' Y ] ( *.i.p.t.{ ( >.4._ s w w m x , a N y.i.>.( ",
"2 U >.i.s.5.4.4.4.e.4.q.e.5.] _ %.4.+.....( ( m l { { ] 4.t.4.%.) ' ( M s a U [ ,.e.#.-.f.h.4.>.4.*.%.>.*._ j ( N d N +.d.d.t.>.",
"< n %.d.f.t.t.4.4.p.t.d.p.y.5.*.4.t.5.] N J N m N >.e.4.>.*.#.+.( &.4.4.N * j 4.e.4.] ` 4.-.| 5.q.>.&.y.t.+.) 4.5.] d [ d.l.q.+.",
"7 U [ 4.y.t.f.5.s.h.s.h.f.p.s.s.*.y.g.-.W c w w ] q.4.>.+.N +.%.{ 4.5.t.] & e ` ` #.*.` W H W 5.4.y.t.s.t.4.4.d.d.2.c ` v.x.8.) ",
"< k ) >.*.{ 4.5.y.4.4.5.*.,.s.5.{ >.r.y.-.Y m l J >._ m ( ] *.{ ) 4.>.*.Y % = : e G _ 2.s.=.} 3.>.y.s.p.5.5.5.s.f.r._ G q.e.%.n ",
"< n &.e.+.Y *.=.#.j 5 w * p N *._ J >.y.-.U ( ` J _ m g ' #.-.#.( #.{ %._ * $ ; e e e *.2...W ..( [ %...( ( { 4.d.r.%.j j ( ( U ",
"< U &.t.5.e.Z.*.' ( p , * % j 5.,.#.,.c.c.,.*.e.y.4.Y m ( _ ] #.m v #.-._ f a v >.] J 5.>.-.1.5.N [ e.p.%.j ' t.h.v.f.*.+.( Y { ",
"X 4 f [ t.y.p.=.5.f.%.4._ d ] 4.*.y.e.d.c.i.i.u.@.P 6 r g P P P h N ,.{ Y n v ` 5.y.-.d.y.y.2.5.%.4.Z.D.f.U ( p.t.f.Z.d.s.*.( h ",
"X 4 j N _ ( { t.h.h.t.f.5.1.5.#._ t.c.f.d.>.*.m 6 6 r P P P P I ) ' ( Y { Y { -.=.*.>.g.s.-.$.s.p.t.4.d.d.[ 4.x.>.>.5.5.y.4.%.j ",
"% n [ %.' N *.s.h.5.4.f.s.y.y.5.*.>.f.s.e.[ 5 4 0 P P P I T T @.9.7.O.' Q Y ;.r.5._ E p.y.5.2.y.d.Z.x.*.{ 4.p.A.h.4.] { t.t.*.m ",
"< j _ %.%.[ 5.s.d.>.{ t.5.y.a.5.;.5.3.,._ 7 4 5 g P P P T I Q 7.j.u.6.7.6.o.o.e.s.-.j _ f.g.5.{ %.d.Z.*.( 4.5.Z.h.r...{ 5.>.] h ",
"X a { ,.*.+.5.5.5.,.( +.5.4.5.*.{ ,.' I 6 6 r f P P g I T T @.H.H.k.k.L.I.k.@.o.r.t.m t #.g.r.*.m *.s.>._ [ { 5.=.2.=.( ) M f f ",
"X m 5.d.s.y.Z.h.h.s.[ 4.Z.Z.Z.y.;.u.Q 3 2 r f g g P I T T @.j.J.H.k.k.J.L.P.z.o.{ v.5.#.-.Z.Z.d.%.*.] [ =._ _ =.} f.s.{ ] ' n p ",
"2 U *.p.f.5.g.h.g.s.4.4.h.A.Z.t.9.6.6 < 6 7 f P P T T Q o.j.H.w.o.k k k P o.H.9.Y y.5.-.-.h.v.h.5.%.4 * m ] ..=.} -.4...d.f.4.M ",
"2 U &.d.d.=.1.a.5.y.4.*.4.f.x.y.@.f < < 6 r f f P T T ! 7.H.7.g 2 @ o     1 T z.6.O.*.3.*.,.y.y.4.{ x h E a.5.g.5.] } { f.d.4._ ",
"2 U >.i.y.{ ] =.-.y.-.,.4.4.t.*.f 2 < 2 2 7 h k T Q Q 6.w.@.f <             2 ' k.[ { d.5.*.y.5.m [ 5.p.t.y.t.Z.5.4.5.5.f.5.%.( ",
"< n [ %.[ [ *...H } _ *.-.=.%.m 4 @ 2 @ 4 r f v T Q @.@.@.g < o       . . .   4 O.+.( *.#.{ A.d.n ( 4.f.4.%.{ 5...{ %.[ 5.5.[ k ",
"< U >.q.>.*.s.s.| z N s.h.p.5._ 7 2 2 o @ 7 g P T Q 6.Q g 8 9 8 .     . = 9 $ . 4 O.>.[ j m =.[ m %.4.4.t.;.[ 4.4.d.4.[ >.4.{ n ",
"+ n >.y.p.y.f.f.2.G ] f.D.v.y.*.k h j 2 @ r k I T o.o.g 8 S N.^ ;     8 ~ M.C . + P 4.+.k M N *.{ t.t.d.D.p.4.f.f.A.A.t.4.4.4.) ",
"X f %.q.p.d.y.5.X.H =.f.Z.x.t.%.g 6 p f 1 a P I Q @.T w A B.W.Y.D o . K T.R./ $ o a ' ' 7 4 j m ( Z.h.p.h.d.5.A.Z.A.v.4.,.5.5.%.",
"  5 ) +.{ ' ,.2.1.X.] y.t.4.4.+.r 1 2 f 6 a P I o.@.f # A V.E.C.Z o # K T.U.^ - o 7 v r 3 w h * h Z.G.h.y.d.*.t.f.d.>._ =.5.*.n ",
"X a ( ' m v -.5.5.5._ *.4.[ *.*.k k g g 1 6 r I @.k @   ; L B.m.;   . ; ^ m.Z X   a c q x m l z s *.f.4.%.%.' >.e.q.( j 4.>.M p ",
"@ k [ ,.{ ] f.f.s.5.( N ( +.p.5.@.>.@.k 1 2 7 I O.r     . - = $ .     . - = X     j +._ { _ s t w >.y.*.%.( Y 4.>.4.' x 5.-.x 7 ",
"< a Y q.4.*.d.y.t.t.) j ) 4.y.e.%.q.p.P 1 2 6 Y @.7 o o         .               @ k ,.:.[ m q : t >.x.i.p.,.>.d.4.) x q l N m m ",
"X 5 P +.{ +.d.s.d.y.' ( i.i.5.q.[ ;.u.P 4 < 4 I @.g o                         X 7 Y >.*.] g , z N { q.f.x.,.*.y.q.U q B q m ' Y ",
"o p P ) ' ' q.t.>.4.( [ q.q.4.>.U [ >.7.k < @ g O.Y 2 o                 o X < a T ;.Y ( ' Y x c j ' 5.p.i.[ M { U 5 q V t a x j ",
"@ n ) >.>.{ t.i.4.4.*.4.y.d.d.;.( *.,.c.i.f @ 2 P @.I 4                   < h ( p.q.U &.3.-.*.` ( -.f.f.f.>.U _ 7 & 5 , w 0 a a ",
"@ h ) O.[ ) >.t.q.>.*.>.>.i.i.4.8.t.;.q.i.k O @ r P o.T p < <         < 2 k P U u.i.>.i.y.4.4.*.*.e.h.c.d.>.k m v M j f ( m h a ",
"o h ) U U Y &.q.e.[ N [ >.4.i.q.q.x.t.8.O.4 o @ < 2 k Q T T 6 <     1 j m P f f ;.q.>.q.i.d.e.>.*.q.p.f.d.>.s s M %.{ n O.[ j a ",
"o f o.) v 7 M %.%.M f [ i.p.i.4.;.d.p.u.k @ 2 % < < < 6 P P P p @ 2 j j r 5 2 7 O.( U >.t.p.q.>.*.>.>.q.4._ b [ ) +.%.P ) %.Y f ",
"o f T U a @ & a v [ ( >.y.i.4.O.{ t.p.O.2 @ 7 h r 6 < O < 1 g Q k o.P 2 @ 6 h k n j j >.t.q.q.*.[ &.%.Y j w j O.@.O.O.n U +.) h ",
"+ 5 n f * * 5 l N ] x N { >.{ [ I #.0.P < 2 7 f g P P r 1 < f @.I 6.P 2 6 f P P g k g %.e.;.;.%.P j m v s a j [ ( U M h U ' U 4 ",
"< P ) ) M x [ *.t.>.( _ J =.>.e.>.2.9.f 2 6 7 f P P P f g P P k 4 j P k k P P P k o.T e.f.f.p.,.%.Y J _ ] -.{ *.' P j m *.>.o.h ",
"4 P ) &.%.) *.>.y.e.>.r.1.5.d.d.i.x.@.6 6 r r P P P P P Q o.g <   O p P Q T P I g j &.p.c.c.i.>.4.y.2.-.5.f.>.>.,._ j N 4.,.+.T ",
"< n O.&.[ [ >.*.*.e.*.,...-.h.d.e.6.6 < 7 k P P P P T o.Q g O O 6 < O r T @.Q I j a @.i.p.y.e.i.,.f.2.=.r.y.>.%.%.] N _ >.&.) ) ",
"+ h ) &.) ( %.%.[ ] N O._ H -.y.;.g 2 3 f P g P I ! @.T f <   6 I r < O 7 I @.@.o.k f ;.4.,.i.d.,.y.=.} -.*.' *.#.] ] [ >.[ ( m ",
"< U &.&.) n ) 4.*.a ) x.f.-.5.-.I g 7 7 r f g P I I P 6 O   1 P @.v 6 < < 6 P T o.Y p Y >.y.d.d.5.d.5.` ] ] *.d.5.-.4.+.[ ( %.) ",
"< P @.>.4.O.{ 4.4.' 4.Z.h.5.y.4.O.n 2 2 1 2 2 6 6 2 < < O < 7 T 6.I f 6 < < < < 7 h h p %.d.f.v.y.d.i.=.=.t.y.c.f.f.t.{ ] ( [ U ",
"+ p ) &.q.q.q.#.*.t.*.t.Z.5.5.4.e.;.f O o < < < o o < < 6 2 f Q 9.I k 7 7 2 o o X 7 %.N N 4.x.v.q.y.i.>.y.v.d.h.x.Z.d.%.4.>.( h ",
"  4 n [ %.{ &.*.5.f.4.4.s.f.5.*._ *.;.2 @ 7 k 7 1 O 1 g k 6 g Q 9.I k f k g 1 O 7 k @.:.*.] ,.t.%.4.p.=.y.p.>.d.h.Z.4.) e.e.[ N ",
"+ 4 r j j j ' e.e.4.) %.5.y.5.( v >.4.p 2 j o.' r O 6 P P f k @.9.P k f P P 6 1 P I Q +.d.>.[ U h >.x.5.=.+.) q.y.4.N M i.4.) n ",
"@ j f @ - N p.h.Z.t.) 4.Z.f.d.4.*.v.d.Y 2 f I P 6 < w P P r P Q 6.P g f P P w 1 a I ,.0.x.q.%.j v p.D.A.t.{ >.v.d.q.4.` 4.5.>.U ",
". 7 f 3 ; G e.d.s.4.+.y.x.f.Z.d.q.d.c.q.f 1 2 < O 1 f I P r k T P r k g P P r 1 k e.t.p.p.>.&.m N s.h.v.h.e.q.l.d.Z.Z.*.G { t.) ",
"o 2 p n M d c ` #.#.[ %.>.d.c.t.[ *.f.e.k +   o O 7 g P k f P I 6 1 g f P I g r 0.3.;.p.p.u.e.%.N 5.f.q.*.%.;.t.d.v.p.O.] N J x ",
". a m +.,._ G ` #.=.+.4.&.t.c.8.P ,.n.v.P @   o 1 7 P P j a P I 2 1 P g P I g g 2.R { d.f.p.x.i.) ) *.[ [ ) [ >.i.y.%.[ 4.' x j ",
"2 j U &.>.{ W =.f.e.N ) %.*.p.,.O.d.n.x.k O o @ 6 f P I f r P Y 6 < k g P I k g G u E e.p.p.i.e.O.{ m n ;.%.( q.f.d.q.*.q.[ j a ",
"% a U ' [ ' { >.d.e.m a n Y ] P Y f.p.;.7   @ 4 7 a P P 6 6 k P 6 < 6 7 k I k f Q c c E -.t.,.,.{ ) k [ y.%.U y.h.d.>.) *.%.v w ",
"2 P +.&.*.4.d.f.Z.x.*.M j _ ] ( _ d.q.7 @ @ 2 7 7 g I v 4 < a a @   @ @ g Y j a #.-.R { p.v.f.f.y.( f d.A.4.4.Z.x.i.t.%.4.4.&.N ",
"@ U 6.i.d.d.d.x.S.v.>.( a j ( N M 7.T @   @ 6 4 7 k P g @ + 2 @ o   o @ 7 m j 2 k 3.2.v.D.D.h.f.>.h j h.K.f.4.p.q.4.d.y.d.y.*.) ",
"@ n %.q.i.t.t.i.v.d.%.' 2 $ y F R *.f o   o 1 3 g P a 1 + + X         o % 5 a 7 f +.-.v.F.G.D.-.f 4 h 4.A.f.%.q.d.d.d.t.d.t.) m ",
"< f U %.[ O.q.q.4.[ m M g d F m 2 @ O     o < 7 f 7 O o       o       o o O * 5 % 6 Y >.e.f.v.+.a n N +.i.*.) e.d.p.4.[ >.*.[ U ",
"+ p Y e.e.>.l.x.e.,.+.>.,.2.! g 2 4 5 4 * % r a 7 7 7 4 4 4 2 @ + 2 4 4 4 4 p f r 5 5 f Y T ' I N e.f.f.i.( ) x.c.d.e.( N %.&.M ",
"4 U +.e.t.i.l.l.f.c.t.i.e.0.<.$.,.p.x.i.+.J R E ] e.p.e.[ M Y m m { >.>.%.*.t.t.,.e.>.*.] Y { 3.;.q.x.h.x.t.4.f.p.d.c.,.N [ [ m ",
"p O.;.&.>.5.d.d.d.d.e.i.3.0. .$.,.x.v.f.t.*.,.-.! r.c.e.' R ;.%.) >.d.q.' &.d.i.4.p.e.>.{ -.f.5.[ k ' 5.Z.Z.e.e.>.>.e.{ N ) ) P ",
"< ( >.%.>.%.,.t.i.,.+.,.3.e. .$.>.q.,.>.,.%.4.t.#.,.*.j b *.8.%.( %.q.>.U ) q.,.,.4.;.*.,.2.g.d.N @ p ,.f.4.>.y.>.%.Y Y 4.4.) P ",
"X h ) O.m f [ *.e.>.U [ *.,.W X.+.+.+.*.*.m U +.{ j 7 l >.q.>.%.U [ %.%.U U { ) %.>.[ >.e.5.d.y.N * Y 4.4.%.{ y.>.' ] M { +._ j ",
"X p ) 4.j p ) ( >.e.+.*.,.>.W ` [ 4.p.d.h.4.>.O.Y 5 $ c e.q.q.%.) %.&.[ f p v m 4.t.%.y.f.f.d.s._ _ Z.x.y.t.*.d.y.,.t.M m %.*.N ",
"< j ;.l.*.m ) ) %.*.&.e.q.t.X.E O.d.x.d.f.e.t.*.g q y d +.%.O.n ) &.+.j @ @ p { d.d.>.t.f.d.y.a.{ 5.A.f.4.e.4.d.s.5.e.Y N *.4._ ",
"2 ( 4.f.c.%.%.( { ' Y >.d.d.%.m ) d.d.t.;.] ( ) t a t 0 k ) +.P U %.+.j a a %.>.q.d.q.%.4.d.t.#._ d.v.d.&.N [ i.p.e.8.T j x m j ",
"+ m >.i.d.q.%.k ( [ n Y 4.8.%.( U q.q.*.+.c 3 7 m o.U r w h O.o.P U ) &.{ n %.>.8.&.+.;.%.*.*.{ *.d.Z.d.i.) n ;.q.4.;.m s l j m ",
"< m &.q.;.+.O.n [ >.U j m +.>.%.m ) %.) o.Y - h +.&.o.U T k P P p n %.>.] n ) &.>.O.n [ _ M M *.>.>.y.d.i.&.) ) O.+.Y f ( %.( n ",
"+ h P U m n U n U U f f h n ) ) k n m j a w 3 h ) U k n ) U f 7 2 k ) U n p P ) U P h j m U x Y n P ) %.O.) P n k k m 7 n ) m f ",
"  < < < + < 2 5 4 < + @ < @ 2 < 2 2 2 @ . . @ @ 4 4 @ < 5 p @ o   < 4 < + + 2 f 2 2 @ @ 2 5 @ @ < 4 4 p 5 < @ < 4 < 4 2 < 4 2 + "
};
