/* XPM */
static char *result[] = {
/* columns rows colors chars-per-pixel */
"64 64 19 1 ",
"  c #34313C",
". c #2F2C36",
"X c #3E3B49",
"o c #2A2630",
"O c #393642",
"+ c #1E1B21",
"@ c #242128",
"# c #181519",
"$ c #42404E",
"% c #464453",
"& c #080907",
"* c #50505E",
"= c #4B4A58",
"- c #110F10",
"; c #595966",
": c #626471",
"> c #6C6E7B",
", c #7A7C89",
"< c #8E92A0",
/* pixels */
"++ :-$+&&&&&&&&&&&&&&&&&&&&&&&&*@&&&&&&&&&&&&&&&&&&&&&&&&O@O*-.&",
"*::;;;:o++++@@++++@@++@+@+@+@O*>:X.#+++++++@@@+@@+@@@@@+%>*:>;:@",
"==$:X%%:;;::>,::>>,,;>,>>>>;%;*OX:=*;;:::>;>,,:,,:,>>>*;;=**=**X",
"**X,O;;;oOX$%= ==%%= $%$%$$..*X;*O%oXX%X$=O=*$X==.=X%O+*;: ;;O>X",
"$*>$>%$=@OX%==***==*==%*;%%OoO =$ o $$%$%*=*;****=*=%$@%;=:*;>==",
"X+>::#X.$ .... O    . .. .. @. o Oo..oo..... ..   .  .$O$OO>>O@O",
"X*=@**= O&&&&&-#&&&&&&&&&&&&#&o=$-#-----&&&&&---&&&&&&+OX;:XX>*$",
"%%OO$=% #&-+..@o. @#-&+@o.o---&+-&#. O#&+#-+@.##@+@@#-&.O=;XX** ",
"@%*: O$ &##@X # XO$+-.Xo %$X+#-&-+o X.@o#@.o O#o .XO o+#=O.*:% &",
"++@oo +-@#+#@o+...O@+ %o. ..@##-#+.o@+o.+o.@@o@O o.o@.@#-.. o@@-",
"#@-# #&#@@.#+=*==**;@:>:;*+.X$X$$OX=*o :;:==o=:;*%%O@Ooo+&.o&+@-",
"@Ooo#-+o.OOo$XX$%%%$o;=$$O ;=X%$X$ X$oX*$$O% ;$X$%$ .$X.+#&oo  #",
"+X@.#+..X*$oXX %%%$$ ;%%XO *==%%$$%$% oX=%$$ ;=X$$X$ =*% +&ooO -",
"@%O$+#o@X*O#@.@O%$X%-o XOo-o$XX.o X$X.ooXX.X+OOXX .*O%= X.&.=%$#",
"+$OX++o.X=OOOX=X#+O %@ @@=$$%o#.$$XXOO%X-+ .. O@+#@$.=XX..+.X%O-",
"@% OooOX%=%;***;Oo$oO=:$=>>;;%@$*::* ***X=*%:>:..+ % %XX X@ $%O-",
".=X=@O$%%%***$$X @=%XXX %=$%%=oXO;:$$;%X==.X$$O@X %.$*OX..- ;=%#",
".=%=+@X$%=%=XX$%%@%%%==..X$*=$oX=>:=;%=%*;X$%%$o. $X.o@o.o-O;*%#",
"O***#-ooO$XO@...@+.. XO#&- XO #oO=X.*O;  O@O ..#+.o ..@oOo-O:*=#",
"o*OX+oXXo O%% #X=*%=.#oO@=+&%=$=*:;$% *$X=X-%;**%*$o;X%O o@.X=$-",
" ; O+.OXX$ XXO@==%%=$#%;%*$+:*%%%*;%%X%X***.*=*=%%$OX %. +- O%$-",
"@%%*+@OO%%OOXX@XX$$%$+$=$$* %%$XXX=;XO$*$.O.$$$%$ %oX % .o-O;=%-",
"o=%*+&ooXX   o-o.XXXO+  $O o.OX$$ .+X=%% oo#. X%OO @Oo.Oo+-X*=%#",
"o===+#+oo+#.XOOX.+ $X O++o.-oo+.+oX X..+  @.@o+@. .o.O.+@@-O:*=#",
"@=X%+#+@@Oo%%**;=o;;=*:$@O*X*% *X******.=;O=;*.X%=$***=   -O=$$-",
"+$$%+@..OXoXOOX$$.$$O$%=oO.%$*OO$$X$XXO@oXO $% @@ O$$OO..o&O=$O-",
"@$ %@+..OX+.O$$%=@.%%%*X+X%=%=.XX$%$$XO.O$%XX$.oO$  $OX@@o-O%X$#",
"o%.$+##@oo-+.OOO.&+ XX@--+.   +o.@@...+&#oOO. #&OOXooo -&#- XO$-",
"@ OO#-@#%* XO.#O*;=$@-o=%;@+=O .%==@ $X =%-# **=* o@.*%%$@&oOX #",
".=:;o&o.=$$XX.@*%*;:X.===; O;*;***: .:*%=*X $%*=%%$+X*=%X #;::X-",
"*% $*#+o  O OXoX%XX%@=$XXX.O%$%=XX%@o oXX$O ooOO%XO# %O.o#%*O$;o",
"XX;* ;@+o XXX +OOOXXo%XXXO@X% XXXX%@&.%$X$.+OO   .o+ X  +=>.:; >",
"..XX .-+o@@.O +@. .@-oO o #+ o@+.Oo#@.o. O.@oo++.Xo--@+oo@X $Xo.",
"o .X &@O  # **=%***#-o* .:**=;. *=;;:..=:;;;:=*+;:o##&o%$+#$ OO-",
"-+ o--@..Xo. OX$XXXo.## *X%*X*X.=$$O$o.X$X%XXXX@$$o$O+ %.o&+.o#-",
"#@-+##+. .@ooX%XOXX@@  X$ O$=$ O%XXO$o+O OOOOX$ %XO$XOo ++-@#+o-",
"#O.O##-#o.--@@o@o@@+oo@.oo@o..o#o.. o-+ o.+#. .#oo.o.o-#--&.XOO-",
"o$OX#-@$XOX.#-#.#X****;oO;;=$.*;%=%@O**X#oO$ $$==O.-*;$.O@&.$$X#",
"@%OX#&oXXOOX +.Oo=%$O=%@%*=%% %=%OX$*==X $%=$%*%$%%@X.o.O@& %%X-",
"@%$=+&@ O . . OO@$OoO  #@XXXX .OOXOO$OO o   OOO$ .O@+@o o+&O=%X#",
"@%X=+-+@o.  o+  +ooooo.-#  O oo.OO ...o@#o... o  @+# oo.#-&X*%$#",
"o%%X##@oo@. X +  . #@..O.O @@o X@++.%XXX@-@o = -o .oO@.@.o-.;=$#",
"o==*#+@..+%$X$ O=%*. =$%=XX.X=%%O%%%;;%*..*O%$O.=$$*%OOO$.-O:*%#",
"oO %+--++#o..+@o.oOoo  ..O .O . O .$XX o.o.++-@OO OO  oo.-& X$$-",
"o$$$##ooo++o.+-#. O+#.oo  .-+o O  o.OO ..+.@.oo.      .#o+- == -",
"o%O%#-#oo@++o .+#o.o+o.#+@+@@@+#oo@#+@@@o@ @#++o.o.o+@.-#-& =$X#",
"@%O$+-#. %$oX=*O@XO=%%* -.*=%=O@o$=*O@& ==$*O& %XX%.#XXOo+&.%$$#",
"@X X++#o...@.  +oO   X.@.XO.. @-+o@o *@oO.OOX++O.. o#oo@+@-o X -",
"@X.O#-#o. .+.  +#ooo..+##oo o.+# @+@ O@o...+@#+ .o@++.o+@+-. O -",
"o%OX#&#@o.o##+oo--+++#&-&#@.o+#.o+@@@o@++++@++++o@#@#@o+--- %$O#",
"+X  #@..O .++.oX.@ =@&O%X. $..=%X.$@$O$$OX@ O**X&o*%=$Oo++&oXX -",
"@X. #&-###o@@@+++oo.o@  O OO@##o   #@ o...-oX  .- Xoo oo##-oXO -",
"@X@ #&--#oooo@oo++##o o. ...o+#@o@+-#@o.o+@O@@.@-o.oo.@#+-&.  X#",
"+o#+$&&-#+@+@++@#&#+@@oo+ooo#-#+@+&&#+@@+-+@++@+&@-+@@@#-&O%#o.#",
"$=%*==--+o.o.-# O O.#OXO$O-#@o.o--@O  +#@O  @--@Oo.@-#+#& ;;;**+",
"X:::O$: &+o+o-+O ..o+ o OO-#o.o@#o.. O #.XXOX@&o oO@#@++;*X;::*#",
"%$.oO%$$#&##-##@@#&&#.XO.@++&&-O+oo@@+@#+@@+.@#@#++#--& %%%. O%o",
"Xo@%+ $XX&&&&-&&##-#.+#-+#+.o- <;#.+##---#@@@#&-##--&&@XX$o $+O$",
"oO=*$OX$%X$$X$%%$X$%$XOOOXOXO%;o=; X%XX$$O%=%X$XX$X$$O%;%.X**$ O",
"o+%%%@O*+X%=*;*;;****;*;;=$X.%O;$$X *=***;*;;*;;*=;=%X+X*@ =$.@X",
".+O  +.O+@o. XoXXOX%.OX OO o@..$O@.@O XOOXo XOO$XoXO .+oXo+O o+@",
"Oo+#o@....OX$=$X%%=*=$%XX$$O . o.X XO$%XXXOX%=$%=%=%XX   .o##@.@",
"o..Oo. #####++#-##+###+-#####+oOO@#######--############-@ .  @ #",
"-##@-+#-&-&-&&&-&-&-&&&-&&-&&&&o-&-&--&-&-&&-&-&-&-&-&&&-+#+@-#&"
};
